<?xml version="1.0" encoding="UTF-8"?>
<svg version="1.1" xmlns="http://www.w3.org/2000/svg" width="1512" height="1345">
<path d="M0 0 C2.73710285 1.36855143 2.77219377 2.63856984 3.76147461 5.50488281 C4.27102943 6.96314484 4.27102943 6.96314484 4.7908783 8.4508667 C5.1576619 9.52411194 5.5244455 10.59735718 5.90234375 11.703125 C6.29148453 12.82197083 6.68062531 13.94081665 7.08155823 15.09356689 C8.14936336 18.16628029 9.21092709 21.24107193 10.27035522 24.31668091 C12.07973701 29.56008906 13.9082719 34.79688201 15.73297501 40.03497314 C16.43852497 42.06103552 17.14322419 44.0873925 17.84786987 46.11376953 C22.31152059 58.94056908 26.89540715 71.72317842 31.5 84.5 C38.08888017 102.80269262 44.57778298 121.13818669 51 139.5 C59.75491237 164.5254321 68.66617489 189.49219828 77.64111328 214.43945312 C81.20588351 224.35043377 84.75771203 234.26605429 88.31066895 244.18127441 C89.89735598 248.60878754 91.48474742 253.03604799 93.07211304 257.46331787 C96.21140216 266.21911666 99.34965144 274.97528604 102.48554993 283.7322998 C113.53826308 314.59695216 124.64013461 345.44367392 135.77085876 376.28025818 C138.85249497 384.81801615 141.93129799 393.35679157 145.00825119 401.89623833 C153.96021107 426.74035645 162.92050909 451.58123204 171.95898438 476.39404297 C175.65788217 486.55002522 179.34491322 496.71020489 183.01953125 506.875 C191.97169817 531.63711003 200.95363528 556.38701145 210.05029297 581.09643555 C215.98079509 597.20799073 221.87341367 613.33319288 227.75660706 629.46206284 C243.40473376 672.35983204 259.17594749 715.21202199 274.96734619 758.05723572 C278.56188272 767.81025507 282.15445135 777.56399837 285.74650574 787.31793213 C289.25385843 796.84147908 292.76342215 806.36420996 296.27375793 815.88665771 C298.67200218 822.39331238 301.06701515 828.9011425 303.45901489 835.41009521 C321.37260768 884.95162668 321.37260768 884.95162668 341.84033203 933.46630859 C342.91257195 935.80898351 343.95807611 938.16154582 344.99609375 940.51953125 C357.71006078 968.99947446 375.8934785 996.50861978 403 1013 C403.59329102 1013.36254883 404.18658203 1013.72509766 404.79785156 1014.09863281 C424.63941596 1026.09078712 446.34237481 1033.99227123 468 1042 C468 1042.33 468 1042.66 468 1043 C344.58 1043 221.16 1043 94 1043 C96.86765425 1040.84925932 98.78209935 1039.5064563 101.9140625 1038.125 C102.6661499 1037.78533203 103.4182373 1037.44566406 104.19311523 1037.09570312 C104.99563721 1036.73412109 105.79815918 1036.37253906 106.625 1036 C121.11628155 1029.29089247 134.54397688 1020.99936524 147 1011 C147.72316406 1010.44183594 148.44632813 1009.88367188 149.19140625 1009.30859375 C159.59529084 1000.85925499 167.12048265 989.12506509 170 976 C170.29514449 972.8165491 170.32364609 969.63311348 170.375 966.4375 C170.41238281 965.61314453 170.44976563 964.78878906 170.48828125 963.93945312 C170.7134774 947.08727455 163.17389795 930.13323752 157.625 914.5 C156.91669895 912.48562619 156.20919603 910.47097159 155.50244141 908.45605469 C154.0515795 904.32289512 152.59697657 900.19108627 151.13867188 896.06054688 C147.86800835 886.79600326 144.61754808 877.52441694 141.375 868.25 C141.0666925 867.36900635 140.75838501 866.4880127 140.44073486 865.58032227 C135.53735278 851.55784741 130.80057638 837.48487135 126.13369751 823.38214111 C121.13083264 808.27297843 115.9372707 793.23670254 110.66479492 778.21972656 C107.53865256 769.30979138 104.43907154 760.39280554 101.421875 751.4453125 C101.12643799 750.56957077 100.83100098 749.69382904 100.52661133 748.79154968 C100.22972412 747.91150772 99.93283691 747.03146576 99.62695312 746.12475586 C92.14419009 723.94886558 84.22400048 701.948346 76.19082642 679.96646118 C75.76949432 678.81350555 75.34816223 677.66054993 74.9140625 676.47265625 C74.49506683 675.3262265 74.07607117 674.17979675 73.64437866 672.99862671 C60.31281738 636.49035316 47.63466229 599.75391933 35 563 C34.55669012 561.7106293 34.11337134 560.42126165 33.67004395 559.13189697 C29.7439385 547.7131599 25.81866692 536.29413611 21.89553165 524.8743782 C15.37485623 505.89380603 8.83369667 486.9204148 2.27587891 467.95263672 C-3.77445619 450.45215044 -9.8088375 432.94622173 -15.83353424 415.43689728 C-24.69231137 389.6913266 -33.56885763 363.95193971 -42.46685791 338.21989441 C-44.93216839 331.09022766 -47.39532286 323.95981965 -49.85719299 316.82896423 C-51.54152246 311.95103861 -53.22700629 307.07351239 -54.91275024 302.19607544 C-55.71577137 299.87191725 -56.51832873 297.54759877 -57.32040405 295.22311401 C-58.42326887 292.02720794 -59.52782854 288.83189263 -60.6328125 285.63671875 C-60.96099472 284.68440369 -61.28917694 283.73208862 -61.62730408 282.75091553 C-61.92705643 281.88524963 -62.22680878 281.01958374 -62.53564453 280.12768555 C-62.79588409 279.37424362 -63.05612366 278.6208017 -63.32424927 277.8445282 C-63.98178096 275.94290372 -63.98178096 275.94290372 -65 274 C-128.36 400.72 -191.72 527.44 -257 658 C-257.66 657.67 -258.32 657.34 -259 657 C-258.53964355 655.83919922 -258.07928711 654.67839844 -257.60498047 653.48242188 C-245.28620007 622.41449009 -233.03924063 591.31878037 -220.82910156 560.20800781 C-216.07550858 548.09624303 -211.31937747 535.98547513 -206.5625 523.875 C-205.86536392 522.10008179 -205.86536392 522.10008179 -205.15414429 520.28930664 C-199.32748972 505.45555204 -193.49004803 490.62615017 -187.63235474 475.80462646 C-181.733674 460.87808553 -175.86607292 445.93938112 -170 431 C-163.84632866 415.32817957 -157.68834611 399.65816336 -151.5 384 C-145.4600422 368.7158381 -139.44552818 353.42173968 -133.4375 338.125 C-132.97366913 336.94407776 -132.50983826 335.76315552 -132.0319519 334.54644775 C-128.68752516 326.03113903 -125.34370009 317.51559408 -122 309 C-118.1879016 299.29150892 -114.3755566 289.58311479 -110.5625 279.875 C-110.09810516 278.69262756 -109.63371033 277.51025513 -109.15524292 276.29205322 C-103.32584911 261.45134831 -97.4850795 246.61523223 -91.62530518 231.78649902 C-85.87764506 217.23988788 -80.15549295 202.68329549 -74.4375 188.125 C-73.97366913 186.94407776 -73.50983826 185.76315552 -73.0319519 184.54644775 C-69.68752516 176.03113903 -66.34370009 167.51559408 -63 159 C-59.1879016 149.29150892 -55.3755566 139.58311479 -51.5625 129.875 C-51.09810516 128.69262756 -50.63371033 127.51025513 -50.15524292 126.29205322 C-44.04726036 110.74210589 -37.92761349 95.19686384 -31.78417969 79.66088867 C-28.20278287 70.60029759 -24.63834545 61.53314768 -21.08400345 52.46191025 C-20.33260815 50.54444094 -19.58094869 48.6270754 -18.82919312 46.70974731 C-18.58039083 46.07517168 -18.33158855 45.44059605 -18.07524681 44.78679085 C-17.57157494 43.5021739 -17.06789375 42.21756062 -16.56420326 40.93295097 C-15.32304282 37.7670374 -14.08272917 34.60079682 -12.84423828 31.43383789 C-11.45654655 27.88617586 -10.06637552 24.33949387 -8.67578125 20.79296875 C-8.26286331 19.73522751 -7.84994537 18.67748627 -7.42451477 17.58769226 C-5.09521763 11.65460172 -2.65061363 5.79701854 0 0 Z " fill="#272B5B" transform="translate(504,11)"/>
<path d="M0 0 C0.66 0 1.32 0 2 0 C2.37584229 1.08265137 2.75168457 2.16530273 3.13891602 3.28076172 C11.61604871 27.68864955 20.19523303 52.05718343 28.91238403 76.38034058 C32.75656754 87.10725275 36.58702073 97.83906457 40.418396 108.57055664 C42.12158167 113.34075434 43.82530634 118.11075947 45.52902222 122.88076782 C49.37197573 133.64018393 53.21384849 144.39998515 57.0546875 155.16015625 C81.52355047 223.7063162 106.13320504 292.20207002 130.80267334 360.67626953 C132.06481592 364.17992636 133.3266218 367.68370433 134.58837891 371.1875 C145.19223752 400.63183591 155.82451247 430.0654173 166.53295898 459.47192383 C170.76126497 471.08477988 174.98053167 482.70078628 179.1796875 494.32421875 C188.37488129 519.7734229 197.63066736 545.19783579 207.01034546 570.5796814 C213.17054727 587.25396446 219.25012801 603.95487985 225.25 620.6875 C232.58415047 641.13688666 240.07057652 661.52618979 247.62689209 681.89439392 C251.70628685 692.89509093 255.75522136 703.90697969 259.80673218 714.91796875 C271.00888304 745.35674134 282.26484793 775.77540934 293.57635498 806.17370605 C294.52452468 808.72182518 295.47230854 811.27008728 296.41973877 813.81848145 C320.05312759 879.03303497 320.05312759 879.03303497 348.96972656 942.01757812 C350.13547761 944.26068204 351.28198943 946.51323393 352.4296875 948.765625 C357.12332304 957.90973508 361.97735714 966.65096372 368 975 C368.71929688 976.00417969 369.43859375 977.00835938 370.1796875 978.04296875 C375.08113119 984.73369378 380.29936839 990.97900232 386 997 C386.83144531 997.89589844 387.66289063 998.79179688 388.51953125 999.71484375 C408.96108148 1021.05426588 436.30040865 1032.26321133 464 1041 C464 1041.33 464 1041.66 464 1042 C342.89 1042 221.78 1042 97 1042 C99.85652062 1039.14347938 103.34982383 1038.53061839 107.125 1037.375 C129.05458264 1030.35111021 148.93454041 1019.10142408 161 999 C174.25200329 972.72114881 167.77649277 943.03017241 159.01782227 916.3515625 C156.94647121 910.12174254 154.79772757 903.91893061 152.63818359 897.71923828 C151.0416523 893.1326183 149.47975123 888.53477891 147.92578125 883.93359375 C141.41260153 864.68068208 134.6691006 845.51205918 127.86279297 826.36108398 C122.22998746 810.50680226 116.66168809 794.63040757 111.11312103 778.74650574 C104.43573247 759.63208039 97.72590347 740.52999201 90.92428589 721.45935059 C86.94903596 710.31327441 82.99427221 699.16034533 79.0703125 687.99609375 C78.64861786 686.79633911 78.22692322 685.59658447 77.79244995 684.36047363 C75.74090953 678.52180224 73.69136867 672.68243568 71.64404297 666.84228516 C70.88794251 664.68773876 70.1315991 662.5332776 69.375 660.37890625 C69.00875519 659.33577271 68.64251038 658.29263916 68.26516724 657.21789551 C65.79278268 650.19677172 63.25292761 643.20242086 60.6875 636.21484375 C58.27958824 629.64482743 56.02157206 623.07446306 54.02978516 616.36425781 C51.61386969 608.47157996 48.86017252 600.6836044 46.1875 592.875 C45.86019897 591.91671295 45.53289795 590.9584259 45.19567871 589.97109985 C39.82931565 574.25982563 34.38443207 558.57672496 28.90234375 542.90551758 C23.79535672 528.30334397 18.73453788 513.6854946 13.6875 499.0625 C12.87939617 496.72143498 12.0712907 494.38037053 11.26318359 492.03930664 C10.04693685 488.51578626 8.83070795 484.99225973 7.61456299 481.46870422 C3.37452426 469.18522567 -0.87397278 456.90467943 -5.125 444.625 C-5.49581696 443.55379913 -5.86663391 442.48259827 -6.24868774 441.37893677 C-12.00934566 424.73893431 -17.779126 408.10210544 -23.55279541 391.46661377 C-28.66522957 376.73610731 -33.7701471 362.00301708 -38.86914062 347.26785278 C-41.48251261 339.71597225 -44.09676656 332.16439697 -46.7109375 324.61279297 C-48.27893656 320.08327114 -49.84658766 315.55362905 -51.4140625 311.02392578 C-53.39696297 305.29411663 -55.38115396 299.56475574 -57.36621094 293.83569336 C-58.11598668 291.6711276 -58.86534265 289.50641639 -59.61425781 287.34155273 C-60.64797736 284.35361765 -61.68318145 281.36620091 -62.71875 278.37890625 C-63.0230896 277.49811905 -63.3274292 276.61733185 -63.64099121 275.70985413 C-65.00909239 271.76803818 -66.39877584 267.85503569 -68 264 C-70.17201293 266.76265841 -71.89641624 269.52189495 -73.49609375 272.6484375 C-73.9655542 273.55899902 -74.43501465 274.46956055 -74.91870117 275.40771484 C-75.67050659 276.876521 -75.67050659 276.876521 -76.4375 278.375 C-80.42460125 286.09778001 -84.48527726 293.76726651 -88.6875 301.375 C-94.19558095 311.37343448 -99.41044964 321.51297386 -104.61239624 331.67254639 C-109.40990433 341.03733076 -114.30880361 350.32705721 -119.40234375 359.53515625 C-123.93257964 367.77306488 -128.21576575 376.13255129 -132.5 384.5 C-137.69027391 394.63685562 -142.96219157 404.7080986 -148.47265625 414.67578125 C-152.79905887 422.54089905 -156.9040485 430.51341027 -161 438.5 C-165.54017461 447.35276888 -170.12337536 456.16690197 -174.9375 464.875 C-179.97580043 473.99126183 -184.75319436 483.22997678 -189.5 492.5 C-197.35599564 507.83899598 -205.40738468 523.05806287 -214 538 C-215 536 -215 536 -214.04290771 533.0627594 C-213.53370382 531.77504542 -213.01567969 530.49080116 -212.49121094 529.20922852 C-212.20833033 528.50057805 -211.92544971 527.79192759 -211.63399696 527.06180286 C-210.67481872 524.6644793 -209.70454835 522.27179927 -208.734375 519.87890625 C-208.0438123 518.15950035 -207.35393917 516.43981737 -206.66470337 514.71987915 C-204.76868979 509.99413241 -202.86308112 505.27230512 -200.95598602 500.55102158 C-198.9227954 495.5126265 -196.89861696 490.47061345 -194.87353516 485.42895508 C-191.39920282 476.78245705 -187.91962176 468.13808749 -184.43652344 459.49511719 C-179.02456921 446.06531552 -173.62427011 432.63084544 -168.2265625 419.1953125 C-166.42222191 414.70433711 -164.61784882 410.21337478 -162.81347656 405.72241211 C-162.36620461 404.60914393 -161.91893265 403.49587576 -161.45810699 402.34887218 C-158.25946984 394.38775265 -155.05924319 386.42727318 -151.85839844 378.46704102 C-140.5365805 350.30904108 -129.24517585 322.13909157 -117.98378754 293.95687485 C-105.07056687 261.6416629 -92.10088248 229.34931619 -79.11759186 197.06219864 C-65.98766789 164.41024548 -52.88686024 131.74690134 -39.82767487 99.06659317 C-26.62053831 66.01655556 -13.33936607 32.99688843 0 0 Z " fill="#272B5B" transform="translate(1040,12)"/>
<path d="M0 0 C1.43107086 0.00090637 1.43107086 0.00090637 2.89105225 0.00183105 C87.35839834 0.14579053 172.07788246 18.0858888 266.6605835 57.265625 C273.59885494 60.23796104 280.54845727 63.18386054 287.5 66.125 C288.29110168 66.45973328 289.08220337 66.79446655 289.89727783 67.13934326 C308.36499746 74.93891048 327.02290752 82.20180153 345.8125 89.1875 C346.64761108 89.49816406 347.48272217 89.80882812 348.34313965 90.12890625 C432.69366505 121.44142572 520.29429442 144.0101254 679.8125 162.1875 C680.58620941 162.2358902 681.35991882 162.2842804 682.15707397 162.33413696 C698.43090128 163.32289761 714.70043295 163.3892878 731 163.375 C731.68369659 163.37473312 732.36739319 163.37446625 733.07180786 163.37419128 C754.37969974 163.36376744 775.57629476 163.12664517 796.8125 161.1875 C797.54698364 161.12197937 798.28146729 161.05645874 799.03820801 160.98895264 C837.88273236 157.51220972 877.43619453 152.62327158 914.76245117 140.87719727 C920.52109622 139.09036541 920.52109622 139.09036541 923.8125 140.1875 C913.95122446 145.85248807 904.01862986 151.26166112 893.78515625 156.22558594 C891.91192194 157.1390195 890.04950632 158.07176052 888.1875 159.0078125 C816.28199219 194.5839992 733.88386075 211.37128082 630.30859375 217.390625 C628.8683367 217.39765069 627.42807996 217.40473747 625.98782349 217.41188049 C621.4085444 217.43127735 616.82931603 217.43631535 612.25 217.4375 C611.46846935 217.43794186 610.68693871 217.43838371 609.88172531 217.43883896 C586.17077963 217.44586456 562.61517486 217.13964461 539.03186035 214.44073486 C536.7078838 214.17556302 534.38288524 213.92106151 532.05761719 213.66748047 C483.03251913 208.25539628 434.84960641 198.00592667 387.8125 183.1875 C386.73029175 182.84685516 386.73029175 182.84685516 385.6262207 182.49932861 C345.69419578 169.88741629 307.46894196 154.02822858 269.62020874 136.15206909 C192.26712847 99.62707803 112.21044702 77.68694215 26.8125 71.1875 C25.6474292 71.09178711 24.4823584 70.99607422 23.28198242 70.89746094 C7.67819381 69.78140453 -7.98924776 69.94156805 -23.625 69.9375 C-24.40301468 69.93705814 -25.18102936 69.93661629 -25.98262024 69.93616104 C-51.50216765 69.92857234 -76.7864073 70.53853346 -102.1875 73.1875 C-103.90184456 73.36094765 -105.61620029 73.53428501 -107.33056641 73.70751953 C-188.75659175 82.05434125 -270.04223743 101.24862147 -380.25366211 145.51049805 C-380.98721924 145.85121338 -381.72077637 146.19192871 -382.4765625 146.54296875 C-383.41556396 146.98612427 -383.41556396 146.98612427 -384.37353516 147.43823242 C-386.2870596 148.22862361 -388.16985947 148.73421346 -390.1875 149.1875 C-389.10808857 145.9492657 -388.46372354 145.31037693 -385.9375 143.1875 C-385.2053125 142.56875 -384.473125 141.95 -383.71875 141.3125 C-382.8834375 140.61125 -382.048125 139.91 -381.1875 139.1875 C-379.84171875 138.011875 -379.84171875 138.011875 -378.46875 136.8125 C-368.79130078 128.39279873 -358.53422902 120.75977887 -348.1875 113.1875 C-347.46014648 112.65479492 -346.73279297 112.12208984 -345.98339844 111.57324219 C-327.53512756 98.13667956 -308.12839089 86.26219331 -288.1875 75.1875 C-287.26275879 74.66833008 -286.33801758 74.14916016 -285.38525391 73.61425781 C-241.44930764 48.9849746 -193.98804028 30.61746791 -145.1875 18.1875 C-144.06875488 17.90068359 -142.95000977 17.61386719 -141.79736328 17.31835938 C-114.40172258 10.38734155 -86.72622424 5.75564297 -58.625 2.875 C-57.83441193 2.79359772 -57.04382385 2.71219543 -56.22927856 2.62832642 C-37.49678485 0.73076058 -18.82486308 -0.02231266 0 0 Z " fill="#282C5C" transform="translate(411.1875,1104.8125)"/>
<path d="M0 0 C1.79603028 0.00187 3.59206107 0.00329114 5.38809204 0.00428772 C10.06670595 0.00806716 14.74528775 0.01785719 19.42388916 0.0289917 C24.21748419 0.03930534 29.01108452 0.04380645 33.8046875 0.04882812 C43.1744931 0.05948456 52.54427511 0.07650451 61.9140625 0.09765625 C58.79288975 2.17843808 57.45469444 2.47159338 53.82958984 2.88793945 C52.78934662 3.0117952 51.74910339 3.13565094 50.67733765 3.26325989 C49.54631622 3.3903685 48.4152948 3.51747711 47.25 3.6484375 C44.82160808 3.93809656 42.39322291 4.22781211 39.96484375 4.51757812 C36.16391424 4.96125414 32.36263223 5.40168152 28.56103516 5.83959961 C-34.01183546 13.09712523 -91.05483166 33.76312545 -137.0859375 78.09765625 C-137.74529297 78.72978027 -138.40464844 79.3619043 -139.08398438 80.01318359 C-148.57224055 89.15763104 -157.3121419 98.45499634 -165.0859375 109.09765625 C-165.94399902 110.24870642 -166.80207201 111.39974802 -167.66015625 112.55078125 C-173.69757286 120.7394877 -179.09998746 129.23217186 -184.0859375 138.09765625 C-184.5205127 138.86964355 -184.95508789 139.64163086 -185.40283203 140.43701172 C-207.27553712 179.73018033 -215.0967131 222.0704854 -221.0859375 266.09765625 C-221.28944824 267.53069092 -221.28944824 267.53069092 -221.49707031 268.99267578 C-226.50274721 304.8572932 -226.28818694 348.17377443 -205.0390625 379.07421875 C-203.13919833 381.51164139 -201.17328073 383.81978473 -199.0859375 386.09765625 C-198.52261719 386.72929688 -197.95929688 387.3609375 -197.37890625 388.01171875 C-183.98768426 402.24969248 -164.79375616 409.83810964 -147.0859375 417.09765625 C-147.0859375 417.42765625 -147.0859375 417.75765625 -147.0859375 418.09765625 C-243.1159375 418.09765625 -339.1459375 418.09765625 -438.0859375 418.09765625 C-435.34783472 415.35955347 -433.83285522 414.32891588 -430.4296875 412.78515625 C-429.03351196 412.14018188 -429.03351196 412.14018188 -427.60913086 411.48217773 C-426.61147705 411.02528564 -425.61382324 410.56839355 -424.5859375 410.09765625 C-402.57506452 399.77623192 -383.15507361 387.33646036 -365.0859375 371.09765625 C-364.41046875 370.49566406 -363.735 369.89367187 -363.0390625 369.2734375 C-342.86156318 350.20089648 -329.4252012 323.54594438 -317.0859375 299.09765625 C-316.5919043 298.12038574 -316.09787109 297.14311523 -315.58886719 296.13623047 C-302.61127935 270.27099847 -292.50375823 243.20087852 -281.9609375 216.28515625 C-278.67167215 207.88837944 -275.38068919 199.49228193 -272.0859375 191.09765625 C-271.77617981 190.30762207 -271.46642212 189.51758789 -271.14727783 188.70361328 C-259.84023169 159.88353771 -246.81454362 132.20302877 -227.0859375 108.09765625 C-226.34988281 107.17082031 -225.61382812 106.24398437 -224.85546875 105.2890625 C-212.22657086 89.53088018 -198.07687318 74.47035681 -182.0859375 62.09765625 C-180.84450568 61.10484952 -179.60366093 60.11130842 -178.36328125 59.1171875 C-137.15351657 26.45217772 -85.54408446 5.64211374 -33.0859375 1.09765625 C-32.1682106 1.01502029 -31.2504837 0.93238434 -30.3049469 0.84724426 C-20.19034034 0.02599232 -10.14151742 -0.03143396 0 0 Z " fill="#282C5C" transform="translate(457.0859375,635.90234375)"/>
<path d="M0 0 C0.66 0.33 1.32 0.66 2 1 C-15.18949164 14.77294672 -34.73493178 25.44711836 -54 36 C-54.90911133 36.49854492 -55.81822266 36.99708984 -56.75488281 37.51074219 C-131.23109145 78.04910189 -215.64119856 102.72453256 -329.046875 111.203125 C-330.45914238 111.21014471 -331.87140942 111.21723155 -333.28367615 111.22438049 C-337.77245538 111.2437878 -342.26118305 111.24881429 -346.75 111.25 C-347.8959281 111.25066278 -347.8959281 111.25066278 -349.06500626 111.25133896 C-371.5178379 111.25815407 -393.70748562 111.03689925 -416 108 C-417.30485352 107.83371094 -418.60970703 107.66742187 -419.95410156 107.49609375 C-472.57055014 100.75944332 -523.64905725 86.25464694 -572.5625 65.875 C-573.24260132 65.59296722 -573.92270264 65.31093445 -574.62341309 65.02035522 C-576.52487008 64.22792648 -578.42147708 63.42508335 -580.31640625 62.6171875 C-581.39349854 62.15940918 -582.47059082 61.70163086 -583.58032227 61.22998047 C-586 60 -586 60 -587 58 C-580.59341937 59.18974254 -574.3023106 60.65898474 -567.99951172 62.30883789 C-526.82281988 73.03050725 -484.37390658 79.43764536 -442 83 C-440.85885742 83.09764648 -439.71771484 83.19529297 -438.54199219 83.29589844 C-401.54183616 86.34586967 -364.07657049 86.92619811 -327 85 C-326.22557556 84.9598175 -325.45115112 84.91963501 -324.65325928 84.87823486 C-238.83383544 80.30623766 -155.61452399 62.50457105 -1.75195312 0.76025391 C-0.88473633 0.38392822 -0.88473633 0.38392822 0 0 Z " fill="#2C3060" transform="translate(1499,1125)"/>
<path d="M0 0 C0.99 0 1.98 0 3 0 C2.484897 5.31455478 0.63835295 8.90623121 -2.0625 13.375 C-2.43955078 14.01566406 -2.81660156 14.65632812 -3.20507812 15.31640625 C-4.12839617 16.88254066 -5.06305393 18.44198034 -6 20 C-7 18 -7 18 -6.47094727 16.12060547 C-6.17244873 15.37697754 -5.8739502 14.63334961 -5.56640625 13.8671875 C-5.24736328 13.06152344 -4.92832031 12.25585938 -4.59960938 11.42578125 C-4.25736328 10.58402344 -3.91511719 9.74226562 -3.5625 8.875 C-3.22412109 8.02550781 -2.88574219 7.17601562 -2.53710938 6.30078125 C-1.69823043 4.19767629 -0.85228875 2.09769845 0 0 Z " fill="#66688B" transform="translate(832,530)"/>
<path d="M0 0 C1 3 1 3 0.37915039 4.80932617 C0.03875732 5.46392822 -0.30163574 6.11853027 -0.65234375 6.79296875 C-1.01650391 7.50517578 -1.38066406 8.21738281 -1.75585938 8.95117188 C-2.14580078 9.68916016 -2.53574219 10.42714844 -2.9375 11.1875 C-3.51661133 12.31188477 -3.51661133 12.31188477 -4.10742188 13.45898438 C-5.06271757 15.31060689 -6.03021577 17.15592452 -7 19 C-7.66 18.67 -8.32 18.34 -9 18 C-7.88315758 15.18400426 -6.75703794 12.3723799 -5.625 9.5625 C-5.30789062 8.76005859 -4.99078125 7.95761719 -4.6640625 7.13085938 C-4.3546875 6.36708984 -4.0453125 5.60332031 -3.7265625 4.81640625 C-3.44377441 4.10943604 -3.16098633 3.40246582 -2.86962891 2.67407227 C-2 1 -2 1 0 0 Z " fill="#5D6085" transform="translate(254,650)"/>
<path d="M0 0 C0.66 0.33 1.32 0.66 2 1 C-0.97 3.97 -0.97 3.97 -4 7 C-3.67 7.66 -3.34 8.32 -3 9 C-8.75 12 -8.75 12 -11 12 C-9.85996765 8.57990294 -8.77829802 7.71130558 -6.0625 5.4375 C-3.96656037 3.66869432 -1.94005112 1.94005112 0 0 Z " fill="#6D6F90" transform="translate(32,1242)"/>
<path d="M0 0 C1.58467728 0.28427417 3.1677057 0.57774818 4.75 0.875 C6.07257812 1.11863281 6.07257812 1.11863281 7.421875 1.3671875 C9.86947744 1.96796264 11.80599857 2.77997117 14 4 C13.34 4 12.68 4 12 4 C11.67 4.66 11.34 5.32 11 6 C7.37 4.35 3.74 2.7 0 1 C0 0.67 0 0.34 0 0 Z " fill="#6E7091" transform="translate(912,1183)"/>
<path d="M0 0 C0.66 0.33 1.32 0.66 2 1 C0.54634731 2.17249353 -0.91307419 3.33783816 -2.375 4.5 C-3.18710938 5.1496875 -3.99921875 5.799375 -4.8359375 6.46875 C-7 8 -7 8 -9 8 C-8.74609375 6.14453125 -8.74609375 6.14453125 -8 4 C-6.22265625 2.69921875 -6.22265625 2.69921875 -4.0625 1.6875 C-3.35222656 1.34074219 -2.64195313 0.99398438 -1.91015625 0.63671875 C-1.27980469 0.42660156 -0.64945313 0.21648437 0 0 Z " fill="#5E6185" transform="translate(1499,1125)"/>
</svg>
